<svg width="300" height="300" xmlns="http://www.w3.org/2000/svg">
 <g id="Layer_1">
  <title>Layer 1</title>
  <g id="svg_8">
   <text fill="#bfbf00" stroke-width="0" x="60" y="69.13969" id="svg_3" font-size="50" font-family="'Brygada 1918'" text-anchor="start" xml:space="preserve" stroke="#ffff00" transform="matrix(2.36716 0 0 2.36716 -56.3287 15.2543)" font-weight="bold">12</text>
   <path transform="rotate(-30.7089 147.308 136.672)" id="svg_7" d="m146.58203,254.80604c-78.88351,0 -95.9965,-74.65096 -142.77915,-115.83111c-46.78266,-41.18016 164.00116,-143.22643 142.77915,-115.83112c-21.222,27.39531 104.64812,91.87386 142.77916,115.83112c38.13103,23.95726 -63.89565,115.83111 -142.77916,115.83111z" opacity="undefined" stroke-width="13" stroke="#00ffff" fill="none"/>
   <path id="svg_2" d="m139.09356,220.43841c-51.79735,0 -93.7532,-37.59696 -93.7532,-84.01296c0,-46.416 41.95585,-84.01296 93.7532,-84.01296c51.79735,0 84.6623,-33.83157 93.7532,84.01296c9.0909,117.84453 -41.95585,84.01296 -93.7532,84.01296z" opacity="undefined" stroke-width="5" stroke="#ff0000" fill="none"/>
   <path transform="rotate(-0.672789 141.279 151.774)" stroke="#ffff00" id="svg_4" d="m141.27904,244.54897c-43.62992,0 -78.97016,-41.51812 -78.97016,-92.77506c0,-51.25694 35.34024,-92.77506 78.97016,-92.77506c43.62992,0 78.97016,41.51812 78.97016,92.77506c0,51.25694 -35.34024,92.77506 -78.97016,92.77506z" opacity="undefined" stroke-width="9" fill="none"/>
   <path transform="rotate(-18.1756 145.809 140.65)" id="svg_1" d="m153.942,226.65394c-51.13259,0 -46.09472,-25.45086 -92.55,-80.26232c-46.45528,-54.81147 13.52448,-118.12483 92.55,-80.26232c79.02551,37.86251 92.55,35.9185 92.55,80.26232c0,44.34383 -41.4174,80.26232 -92.55,80.26232z" opacity="undefined" stroke-width="7" stroke="#ff9900" fill="none"/>
   <path transform="rotate(23.4275 144.679 142.768)" id="svg_6" d="m144.67865,258.76369c3.59787,-35.0322 -142.77915,-51.83602 -142.77915,-115.83112c0,-63.99509 100.02114,-79.82328 142.77915,-115.83112c42.75801,-36.00784 142.77915,51.83602 142.77915,115.83112c0,63.99509 -146.37702,150.86332 -142.77915,115.83112z" opacity="undefined" stroke-width="11" stroke="#7fff00" fill="none"/>
  </g>
 </g>

</svg>